# xmcd
#
# Track frame offsets: 
#        150
#        22716
#        43255
#        65261
#        85085
#        108985
#        126979
#        149433
#        168685
#        191718
#
# Disc length: 2877 seconds
#
# Revision: 0
# Processed by: cddbd v1.5.2PL0 Copyright (c) Steve Scherf et al.
# Submitted via: ExactAudioCopy v1.0b3
#
DISCID=890b3b0a
DTITLE=Truong Vu - Nhung Bai Tinh Ca Dang Do 2
DYEAR=2004
DGENRE=
TTITLE0=Khoc tham
TTITLE1=So tinh ta dang do
TTITLE2=Hoa su nha nang 2
TTITLE3=Xin goi nhau la co nhan
TTITLE4=Chuyen do khong em
TTITLE5=Doan tai but 2
TTITLE6=Tinh yeu cach tro
TTITLE7=Chuyen ngay xua
TTITLE8=Dung nhac chuyen long
TTITLE9=Doi thong hai mo 2
EXTD=
EXTT0=
EXTT1=
EXTT2=
EXTT3=
EXTT4=
EXTT5=
EXTT6=
EXTT7=
EXTT8=
EXTT9=
PLAYORDER=
